<?xml version="1.0" encoding="UTF-8"?>
<svg id="Camada_2" xmlns="http://www.w3.org/2000/svg" viewBox="0 0 353.19 240.16">
  <defs>
    <style>
      .cls-1 {
        fill: #bfd572;
      }

      .cls-2 {
        fill: #92a847;
      }

      .cls-3 {
        fill: #d3e8d8;
      }
    </style>
  </defs>
  <g id="Camada_1-2" data-name="Camada_1">
    <g>
      <g>
        <path class="cls-3" d="M245.6,202.66c5.43,0,10.85-.03,16.28,0,11.73.07,20.01,11.57,16.42,22.81-3.02,9.48-7.98,13.11-17.94,13.12-10.42,0-20.85.02-31.27,0-8.54-.03-14.71-4.99-16.53-13.23-1.97-8.93,2.26-18.59,9.6-21.78,2.14-.93,4.47-.89,6.74-.9,5.57-.04,11.14-.01,16.71-.02ZM245.32,230.39s0,.01,0,.02c5.56,0,11.12.11,16.68-.03,5.8-.15,9.37-4.1,9.31-9.97-.06-5.79-3.81-9.92-9.47-9.98-10.97-.11-21.95-.12-32.93.02-5.57.07-9.24,4.32-9.2,10.16.03,5.92,3.24,9.57,8.94,9.75,5.55.18,11.12.04,16.68.04Z"/>
        <path class="cls-3" d="M353.03,234.37c.15,1.64-.59,2.62-1.94,3.51-1.91,1.27-3.36.24-4.68-.74-4.35-3.21-8.17-7.15-13.09-9.56-8.87-4.34-17.78-4.48-26.6.15-4.45,2.34-8.14,5.74-11.98,8.93-1.98,1.64-4.27,2.87-6.37.39-2.22-2.63-.67-4.83,1.48-6.58,3.2-2.61,6.36-5.32,9.83-7.53,3.2-2.04,2.6-3.07-.16-4.89-3.44-2.26-6.56-5.02-9.8-7.58-2.31-1.82-3.49-4.22-1.3-6.59,2.02-2.19,4.38-1.09,6.44.62,2.85,2.37,5.74,4.69,8.68,6.94,8.99,6.86,25.02,7.18,34.71-1.05,2.5-2.12,5.11-4.11,7.65-6.18,2.16-1.76,4.57-2.33,6.42-.02,1.71,2.13.69,4.29-1.31,5.96-3.5,2.93-6.83,6.08-10.8,8.38-2.48,1.43-2.05,2.48-.03,3.96,3.68,2.68,7.26,5.51,10.83,8.34,1.12.89,2.18,1.91,2.02,3.53Z"/>
        <path class="cls-3" d="M99.62,216.56c8.57,0,17.14-.03,25.72,0,2.78.01,5.96.11,5.97,3.85,0,3.83-3.04,4.19-6.12,4.19-15.29-.04-30.57-.04-45.86.01-1.78,0-4.28-.96-4.22,2.51.05,3.09,2.01,3.32,4.34,3.31,15.57-.01,31.14-.01,46.72,0,1.14,0,2.34-.15,3.41.13,2.03.53,3.69,1.58,3.65,4.07-.04,2.31-1.67,3.2-3.49,3.76-.92.28-1.98.17-2.98.17-15.57,0-31.14.04-46.72,0-10.16-.03-16.49-9.67-12.72-19.24,1.07-2.71,3.48-2.71,5.75-2.73,8.86-.06,17.71-.03,26.57-.03Z"/>
        <path class="cls-3" d="M176.82,238.6c-7.28,0-14.56.06-21.84-.02-9.05-.1-13.29-4.4-13.33-13.42-.03-5.85-.03-11.7,0-17.56.02-2.44.47-4.75,3.6-4.76,3.08-.01,4.2,1.9,4.19,4.75-.02,5.85.15,11.71-.06,17.55-.15,3.92,1.42,5.35,5.26,5.32,14.42-.11,28.83-.04,43.25-.04,1,0,2-.05,3,0,2.52.14,4.57,1.04,4.68,3.92.12,3.2-2.12,4.17-4.77,4.21-6.14.1-12.27.03-18.41.03-1.86,0-3.71,0-5.57,0Z"/>
        <path class="cls-3" d="M29.68,240.16c-3.73-.3-6.73-1.67-8.92-4.61-6.45-8.68-12.88-17.37-19.38-26.01-1.6-2.12-2.16-4.22.22-5.92,2.41-1.71,4.51-.85,6.22,1.45,5.69,7.65,11.43,15.26,17.16,22.88,3.77,5.02,5.05,5.06,8.86.07,5-6.56,9.91-13.2,14.86-19.81.85-1.14,1.75-2.24,2.61-3.38,1.62-2.13,3.74-2.86,5.94-1.29,2.26,1.62,2.03,3.75.39,5.94-6.48,8.66-12.89,17.36-19.32,26.05-1.78,2.41-4.23,3.74-7.1,4.37-.55.12-1.12.19-1.54.26Z"/>
        <path class="cls-3" d="M99.81,210.38c-8.98,0-17.97-.08-26.95.04-2.92.04-5.51-.61-5.65-3.72-.14-3.18,2.42-4.06,5.34-4.06,18.4.04,36.79.02,55.19.02,2.76,0,5.5.46,5.42,3.93-.08,3.38-2.73,3.82-5.54,3.8-9.27-.05-18.54-.02-27.81-.02Z"/>
      </g>
      <g>
        <path class="cls-1" d="M221.45,102.84h13.89c-3.13,3.46-5.67,7.33-7.49,11.81-1.75,4.54-2.89,9.38-2.89,14.74,0,21.47,17.69,38.83,39.45,38.46,21.15-.36,38.38-17.86,38.09-39-.29-21.29-17.71-38.22-38.77-38.22-6.91,0-13.51,1.86-19.08,5.05l20.22,25.91c1.77,2.27,1.39,5.54-.86,7.34l-.24.19c-2.52,2.02-6.21,1.6-8.21-.95l-3.49-4.45-16.5-21.14-.1.1s-.04.05-.06.07l-6.95-9.04-12.79-16.4-.1.1-6.38-8.44,7.1-9.29,6.7,8.35,14.54,18.56c7.63-4.74,16.5-7.42,26.19-7.42,28.75,0,52.17,24.8,49.85,54.23-1.91,24.34-21.51,43.94-45.85,45.85-29.43,2.31-54.22-21.11-54.22-49.86,0-5.16.72-10,2.17-14.74,1.44-4.43,3.3-8.46,5.77-11.81Z"/>
        <path class="cls-1" d="M133.16,102.84h-13.89c3.13,3.46,5.67,7.33,7.49,11.81,1.75,4.54,2.89,9.38,2.89,14.74,0,21.47-17.69,38.83-39.45,38.46-21.15-.36-38.38-17.86-38.09-39,.29-21.29,17.71-38.22,38.77-38.22,6.91,0,13.51,1.86,19.08,5.05l-20.22,25.91c-1.77,2.27-1.39,5.54.86,7.34l.24.19c2.52,2.02,6.21,1.6,8.21-.95l3.49-4.45,16.5-21.14.1.1s.04.05.06.07l6.95-9.04,12.79-16.4.1.1,6.38-8.44-7.1-9.29-6.7,8.35-14.54,18.56c-7.63-4.74-16.5-7.42-26.19-7.42-28.75,0-52.17,24.8-49.85,54.23,1.91,24.34,21.51,43.94,45.85,45.85,29.43,2.31,54.22-21.11,54.22-49.86,0-5.16-.72-10-2.17-14.74-1.44-4.43-3.3-8.46-5.77-11.81Z"/>
        <g>
          <path class="cls-1" d="M204.66,45.58l-.07-.1-21.66-28.51c-1.13-1.49-2.9-2.37-4.77-2.37h0c-2.16,0-4.2.99-5.52,2.69l-27.21,34.85,6.95,9.51,1.38-1.76,24.08-30.74,15.16,20.01,6.57,8.67,7.31-9.35-2.2-2.9Z"/>
          <path class="cls-2" d="M258.84.99c-2.03-1.59-4.96-1.24-6.55.79l-20.63,26.33-4.17,5.25-16.24,20.83-7.33,9.4-29.7,37.95-10.41-13.66-.32-.42-15.47-20.25-7.1-9.29-14.33-18.87-6.7-8.97-17.73-23.16c-2.28-2.98-6.55-3.56-9.54-1.28h0c-2.01,1.53-2.38,4.42-.82,6.41l19.02,24.22,7.01,9.07,16.4,20.93,7.32,9.28.1.1,27.88,35.77c.82,1.05,2.08,1.67,3.41,1.67h4.89c1.18,0,2.29-.54,3.01-1.47l30.1-38.75,7.51-9.26v-.02s3.72-4.75,3.72-4.75l.48-.61,10.87-13.93,7.12-9.07,19.37-24.62c2.34-2.98,1.82-7.29-1.16-9.63Z"/>
          <polygon class="cls-1" points="227.49 33.37 211.25 54.2 211.16 54.08 215.54 48.52 224.44 37.2 227.49 33.37"/>
          <polygon class="cls-1" points="152.37 61.66 148.03 67.2 148.02 67.22 140.92 57.92 145.42 52.15 152.37 61.66"/>
          <polygon class="cls-1" points="211.25 54.2 203.92 63.6 199.56 57.83 206.86 48.48 211.14 54.11 211.16 54.08 211.25 54.2"/>
        </g>
      </g>
    </g>
  </g>
</svg>